  <svg width="30" height="18" viewBox="0 0 30 18" fill="none" xmlns="http://www.w3.org/2000/svg">
    <path fillRule="evenodd" clipRule="evenodd" d="M9.81963 1.24186C10.236 1.277 10.5664 1.41647 10.85 1.6026C11.1834 1.82146 11.2732 2.01379 11.401 2.44898C11.816 3.86217 11.6456 5.53386 11.4951 6.97852C11.4592 7.3229 11.4016 7.59276 11.2823 7.87505C11.1621 8.15956 11.0958 8.26309 10.9204 8.32778C10.2901 8.56036 9.66767 7.81641 9.33919 7.40645C8.87809 6.83087 8.35495 5.88385 8.00975 5.1831C7.85851 4.87614 7.72995 4.67694 7.58543 4.38387L6.44968 1.96425C6.30477 1.63378 6.25818 1.41161 6.02443 1.16596C5.49965 0.614416 5.09134 0.773833 4.1589 0.773622C3.70152 0.773481 0.978577 0.737116 0.656117 0.794589C0.478526 0.826268 0.354347 0.877996 0.236776 0.954991C0.0958367 1.04728 0.0243766 1.17104 0 1.31238V1.56761C0.0599157 1.9961 0.376776 2.49726 0.495494 2.78843C1.25983 4.66363 2.59974 7.09488 3.68591 8.92077C4.50946 10.3052 5.78341 12.0356 6.79808 13.2593C7.39887 13.9838 7.25595 13.7459 7.7262 14.1919C8.0569 14.5055 8.37414 14.7535 8.75631 15.0211C11.6227 17.0285 12.6939 17.0459 16.0002 17.0459C17.473 17.0459 17.2636 16.122 17.3316 15.2342C17.3657 14.7895 17.4749 14.3097 17.6354 13.9616C17.7205 13.7771 17.8243 13.6018 17.9487 13.4597C18.5453 12.7781 19.145 13.2391 19.6913 13.7738L20.7701 14.9634C21.1913 15.5153 22.2041 16.5093 22.8741 16.8115C24.0277 17.3319 25.3242 17.0396 26.4548 17.0455C27.5945 17.0514 29.5744 17.2571 29.5744 16.1678C29.5744 15.4814 29.2278 15.1225 28.9639 14.6793C28.4644 13.8405 26.3968 11.7375 25.6047 11.0594C25.4148 10.8968 24.7801 10.1939 24.7801 9.7292C24.7801 8.84913 26.298 7.09706 26.9337 6.23376C27.661 5.24607 31.2728 0.773622 28.5924 0.773622L23.5337 0.807452C23.2663 0.77595 23.0717 0.812386 22.8871 0.9625C22.7076 1.10846 22.6196 1.26241 22.5276 1.4762C22.0663 2.54807 21.7925 3.36302 21.1655 4.42739C21.0494 4.62426 20.9961 4.7569 20.8775 4.95504L19.8705 6.5686C19.75 6.753 19.64 6.89268 19.5128 7.08413C19.2941 7.41329 18.4297 8.3244 18.1374 8.3244C17.3021 8.3244 17.2705 7.05326 17.271 6.15867L17.3789 1.71786C17.2606 0.56177 16.8891 0.293221 15.9438 0.128342C14.7678 -0.0767791 12.1619 -0.024556 11.0476 0.203505C10.5675 0.301749 9.83232 0.664066 9.81963 1.24186Z" fill="#EA5D4A" />
  </svg>